<!-- Generated by IcoMoon.io -->
<svg version="1.1" xmlns="http://www.w3.org/2000/svg" width="32" height="32" viewBox="0 0 32 32">
<path d="M5.748 28.32c-1.444-2.548-0.462-6.543 2.526-9.531 3.394-3.393 8.085-4.202 10.481-1.807 0.002 0.003 0.005 0.006 0.009 0.010-0.479 1.395-2.006 4.363-6.583 5.967-4.193 1.47-5.81 3.809-6.434 5.361zM17.344 20.897c-1.094 1.095-2.65 2.17-4.854 2.944-4.472 1.568-5.721 4.136-6.070 5.379 0.017 0.017 0.031 0.035 0.046 0.050 2.395 2.395 7.088 1.586 10.48-1.807 3.019-3.019 3.99-7.066 2.481-9.609-0.363 0.847-0.995 1.953-2.084 3.042zM8.090 9.862c4.831 0.423 7.445-1.652 8.456-2.725-0.002-0.004-0.003-0.009-0.004-0.013-1.196-3.169-5.804-4.365-10.294-2.671-3.954 1.492-6.495 4.727-6.229 7.643 1.208-1.157 3.645-2.621 8.071-2.234zM10.578 15.929c3.995-1.507 6.546-4.794 6.219-7.734-0.68 0.622-1.712 1.371-3.152 1.914-1.448 0.546-3.309 0.886-5.635 0.682-4.721-0.414-6.918 1.411-7.748 2.401 0.008 0.022 0.014 0.044 0.022 0.064 1.196 3.17 5.805 4.366 10.294 2.672zM24.56 9.32c2.899-3.889 2.505-7.203 2.123-8.627-0.004-0-0.009-0.002-0.013-0.003-3.325-0.647-6.764 2.646-7.681 7.356-0.808 4.149 0.611 8.010 3.232 9.316-0.349-1.636-0.315-4.478 2.339-8.041zM27.716 1.036c0.172 0.906 0.267 2.177-0.027 3.688-0.296 1.52-0.985 3.281-2.38 5.154-2.832 3.799-2.433 6.627-2.027 7.854 0.023 0.005 0.045 0.011 0.066 0.015 3.325 0.647 6.764-2.646 7.681-7.356 0.817-4.191-0.64-8.090-3.313-9.355z"></path>
</svg>
