<svg aria-hidden="true" style="position: absolute; width: 0; height: 0; overflow: hidden;" version="1.1" xmlns="http://www.w3.org/2000/svg" xmlns:xlink="http://www.w3.org/1999/xlink">
<defs>
<symbol id="icon-coffee-beans" viewBox="0 0 32 32">
<path d="M5.748 28.32c-1.444-2.548-0.462-6.543 2.526-9.531 3.394-3.393 8.085-4.202 10.481-1.807 0.002 0.003 0.005 0.006 0.009 0.010-0.479 1.395-2.006 4.363-6.583 5.967-4.193 1.47-5.81 3.809-6.434 5.361zM17.344 20.897c-1.094 1.095-2.65 2.17-4.854 2.944-4.472 1.568-5.721 4.136-6.070 5.379 0.017 0.017 0.031 0.035 0.046 0.050 2.395 2.395 7.088 1.586 10.48-1.807 3.019-3.019 3.99-7.066 2.481-9.609-0.363 0.847-0.995 1.953-2.084 3.042zM8.090 9.862c4.831 0.423 7.445-1.652 8.456-2.725-0.002-0.004-0.003-0.009-0.004-0.013-1.196-3.169-5.804-4.365-10.294-2.671-3.954 1.492-6.495 4.727-6.229 7.643 1.208-1.157 3.645-2.621 8.071-2.234zM10.578 15.929c3.995-1.507 6.546-4.794 6.219-7.734-0.68 0.622-1.712 1.371-3.152 1.914-1.448 0.546-3.309 0.886-5.635 0.682-4.721-0.414-6.918 1.411-7.748 2.401 0.008 0.022 0.014 0.044 0.022 0.064 1.196 3.17 5.805 4.366 10.294 2.672zM24.56 9.32c2.899-3.889 2.505-7.203 2.123-8.627-0.004-0-0.009-0.002-0.013-0.003-3.325-0.647-6.764 2.646-7.681 7.356-0.808 4.149 0.611 8.010 3.232 9.316-0.349-1.636-0.315-4.478 2.339-8.041zM27.716 1.036c0.172 0.906 0.267 2.177-0.027 3.688-0.296 1.52-0.985 3.281-2.38 5.154-2.832 3.799-2.433 6.627-2.027 7.854 0.023 0.005 0.045 0.011 0.066 0.015 3.325 0.647 6.764-2.646 7.681-7.356 0.817-4.191-0.64-8.090-3.313-9.355z"></path>
</symbol>
<symbol id="icon-coffee-beans-logo" viewBox="0 0 32 32">
<path d="M0.050 24.672c0.499 4.17 5.525 7.314 11.69 7.314 5.542 0 10.25-2.558 11.451-6.22l0.001-0.002c0.188-0.565 0.285-1.157 0.287-1.752-0.003-0.179-0.015-0.358-0.038-0.536l-0.006-0.057v-0c-0.218-1.578-1-3.024-2.202-4.071 1.368 0.602 2.842 0.925 4.337 0.952 1.241 0.023 2.465-0.284 3.548-0.891l0.001-0.001c0.416-0.236 0.799-0.525 1.139-0.861 0.256-0.261 0.485-0.547 0.683-0.854l0.001-0.001c2.251-3.387 0.811-9.078-3.35-13.239-3.853-3.853-9.15-5.42-12.596-3.726-0.554 0.268-1.060 0.626-1.498 1.058-0.16 0.164-0.309 0.337-0.447 0.52l-0 0c-2.564 3.301-1.196 9.264 3.115 13.575 0.426 0.425 0.874 0.827 1.342 1.205-1.842-0.701-3.797-1.056-5.767-1.048-5.504 0-10.331 2.644-11.476 6.286-0.173 0.546-0.262 1.115-0.263 1.688 0.003 0.221 0.020 0.441 0.049 0.66l0 0zM11.739 30.919c-5.191 0-9.621-2.464-10.503-5.721 0.021 0.002 0.043 0.004 0.063 0.006 0.191 0.022 0.372 0.045 0.542 0.073 0.025 0.004 0.048 0.008 0.072 0.012 0.158 0.026 0.31 0.055 0.455 0.085 0.024 0.005 0.050 0.010 0.074 0.015 0.156 0.033 0.306 0.068 0.454 0.105 0.032 0.008 0.064 0.016 0.095 0.024 0.142 0.036 0.283 0.072 0.425 0.109 1.376 0.39 2.801 0.576 4.231 0.549 1.428 0.026 2.852-0.159 4.226-0.551 1.286-0.369 2.619-0.543 3.956-0.516 1.338-0.027 2.672 0.147 3.958 0.516 0.134 0.035 0.269 0.070 0.407 0.104 0.032 0.008 0.064 0.016 0.096 0.024 0.146 0.036 0.296 0.072 0.452 0.106 0.019 0.004 0.039 0.008 0.059 0.012 0.144 0.031 0.294 0.060 0.451 0.088 0.028 0.005 0.055 0.010 0.083 0.015 0.17 0.029 0.35 0.055 0.54 0.079 0.017 0.002 0.031 0.005 0.048 0.007-1.379 2.85-5.512 4.858-10.183 4.858zM26.837 5.209c3.496 3.496 4.959 8.28 3.56 11.278-0.014-0.017-0.029-0.033-0.043-0.050-0.141-0.166-0.272-0.327-0.389-0.48-0.010-0.014-0.019-0.026-0.029-0.040-0.111-0.147-0.213-0.289-0.308-0.427-0.015-0.023-0.031-0.045-0.047-0.068-0.097-0.143-0.188-0.283-0.275-0.421-0.017-0.027-0.033-0.053-0.050-0.080-0.084-0.135-0.166-0.269-0.249-0.405-0.715-1.238-1.609-2.362-2.652-3.338-1.006-1.013-2.158-1.871-3.416-2.545-1.179-0.63-2.257-1.433-3.198-2.382-0.978-0.911-1.814-1.964-2.48-3.123-0.068-0.112-0.137-0.225-0.207-0.339l-0.054-0.087c-0.076-0.121-0.154-0.244-0.237-0.371-0.009-0.014-0.019-0.029-0.029-0.043-0.075-0.114-0.156-0.23-0.241-0.35-0.020-0.028-0.039-0.055-0.059-0.083-0.095-0.131-0.197-0.267-0.307-0.407-0.007-0.010-0.013-0.018-0.021-0.028 3.049-1.026 7.429 0.485 10.73 3.786zM14.251 2.541c0.256-0.254 0.543-0.475 0.854-0.659 0.009 0.011 0.017 0.021 0.026 0.032 0.118 0.143 0.225 0.28 0.325 0.413 0.016 0.022 0.034 0.044 0.050 0.065 0.1 0.135 0.191 0.267 0.278 0.395 0.017 0.026 0.034 0.051 0.051 0.076 0.085 0.127 0.166 0.252 0.243 0.377 0.014 0.022 0.028 0.045 0.042 0.067 0.078 0.125 0.154 0.25 0.23 0.376 0.713 1.236 1.606 2.36 2.649 3.335 1.006 1.012 2.158 1.87 3.416 2.545 1.179 0.63 2.257 1.432 3.198 2.382 0.979 0.912 1.816 1.966 2.484 3.127 0.055 0.090 0.11 0.181 0.166 0.272 0.019 0.031 0.039 0.062 0.058 0.093 0.039 0.063 0.079 0.127 0.119 0.191 0.024 0.038 0.049 0.076 0.074 0.114 0.038 0.060 0.077 0.119 0.118 0.18 0.027 0.041 0.055 0.082 0.084 0.124 0.040 0.059 0.082 0.12 0.125 0.181 0.031 0.044 0.064 0.089 0.096 0.134 0.044 0.061 0.090 0.122 0.137 0.185 0.036 0.047 0.072 0.095 0.11 0.143 0.049 0.063 0.101 0.128 0.154 0.194 0.040 0.050 0.081 0.1 0.124 0.151 0.056 0.067 0.116 0.137 0.176 0.206 0.046 0.053 0.091 0.106 0.14 0.161 0.012 0.014 0.022 0.026 0.034 0.040-0.095 0.124-0.198 0.241-0.308 0.352-0.172 0.171-0.36 0.326-0.56 0.464l-0.018-0.020c-0.034-0.039-0.065-0.076-0.097-0.113-0.062-0.072-0.123-0.143-0.18-0.212-0.035-0.043-0.068-0.084-0.102-0.126-0.049-0.061-0.098-0.122-0.144-0.182-0.033-0.043-0.064-0.084-0.095-0.126-0.042-0.056-0.084-0.113-0.124-0.168-0.029-0.040-0.058-0.080-0.086-0.12-0.039-0.055-0.077-0.111-0.114-0.165-0.025-0.037-0.051-0.075-0.075-0.112-0.037-0.056-0.074-0.113-0.11-0.168-0.022-0.034-0.044-0.068-0.065-0.102-0.038-0.061-0.076-0.121-0.113-0.181-0.018-0.028-0.036-0.057-0.053-0.086-0.053-0.086-0.105-0.172-0.158-0.258-0.716-1.238-1.61-2.363-2.654-3.339-1.006-1.013-2.158-1.871-3.416-2.545-1.179-0.63-2.257-1.433-3.198-2.382-0.979-0.912-1.815-1.966-2.482-3.125-0.082-0.135-0.166-0.272-0.253-0.411-0.018-0.029-0.036-0.058-0.055-0.088-0.088-0.14-0.181-0.282-0.28-0.429-0.021-0.031-0.042-0.062-0.063-0.092-0.103-0.15-0.214-0.304-0.335-0.465-0.020-0.027-0.042-0.054-0.063-0.081-0.132-0.171-0.273-0.347-0.433-0.534l-0.004-0.005c0.026-0.028 0.052-0.055 0.078-0.082zM16.919 15.127c-3.698-3.699-5.095-8.638-3.394-11.615 0.013 0.016 0.026 0.032 0.039 0.047 0.115 0.141 0.222 0.278 0.319 0.409 0.018 0.025 0.035 0.049 0.053 0.073 0.088 0.121 0.171 0.238 0.249 0.353 0.014 0.021 0.029 0.042 0.042 0.062 0.086 0.128 0.166 0.255 0.245 0.38 0.017 0.027 0.034 0.054 0.051 0.082 0.075 0.121 0.149 0.242 0.223 0.364 0.714 1.237 1.608 2.361 2.651 3.337 1.006 1.012 2.158 1.87 3.416 2.545 1.179 0.63 2.257 1.432 3.198 2.382 0.979 0.913 1.817 1.967 2.485 3.127 0.082 0.135 0.166 0.271 0.252 0.409 0.020 0.032 0.040 0.064 0.060 0.097 0.089 0.142 0.183 0.287 0.284 0.435 0.020 0.030 0.042 0.061 0.063 0.091 0.105 0.151 0.215 0.307 0.339 0.47l0.016 0.022c0.126 0.164 0.268 0.338 0.42 0.518 0.019 0.023 0.034 0.043 0.054 0.067-3.029 1.253-7.64-0.232-11.064-3.655zM11.739 17.105c5.237 0 9.676 2.491 10.517 5.781-0.021-0.002-0.042-0.004-0.063-0.006-0.194-0.022-0.378-0.046-0.55-0.073-0.023-0.004-0.044-0.008-0.067-0.011-0.158-0.026-0.309-0.055-0.454-0.084-0.029-0.006-0.059-0.011-0.087-0.018-0.153-0.033-0.301-0.067-0.446-0.102-0.038-0.009-0.076-0.019-0.114-0.028-0.138-0.035-0.276-0.070-0.414-0.105-1.376-0.39-2.802-0.576-4.232-0.549-1.428-0.026-2.852 0.159-4.226 0.551-1.286 0.369-2.619 0.543-3.956 0.516-1.338 0.027-2.672-0.147-3.959-0.516-0.132-0.034-0.266-0.069-0.401-0.103-0.037-0.009-0.074-0.018-0.111-0.028-0.144-0.036-0.292-0.071-0.447-0.104-0.024-0.006-0.050-0.010-0.075-0.016-0.143-0.030-0.291-0.059-0.446-0.087-0.029-0.005-0.056-0.010-0.085-0.015-0.171-0.029-0.353-0.055-0.543-0.079-0.019-0.002-0.035-0.006-0.055-0.008 1.35-2.883 5.498-4.914 10.214-4.914zM1.172 23.054l0.020 0.002c0.206 0.021 0.397 0.047 0.578 0.074 0.026 0.004 0.053 0.008 0.079 0.012 0.175 0.028 0.34 0.059 0.499 0.092 0.032 0.006 0.064 0.013 0.096 0.020 0.154 0.033 0.303 0.067 0.448 0.103 0.034 0.008 0.067 0.017 0.1 0.025 0.143 0.036 0.285 0.072 0.428 0.11 1.374 0.391 2.799 0.577 4.227 0.55 1.428 0.026 2.852-0.159 4.226-0.551 1.286-0.369 2.619-0.543 3.956-0.516 1.34-0.026 2.675 0.147 3.964 0.515 0.095 0.024 0.19 0.049 0.286 0.073 0.036 0.009 0.074 0.018 0.111 0.028 0.066 0.017 0.132 0.033 0.199 0.049 0.039 0.009 0.079 0.019 0.119 0.028 0.066 0.016 0.134 0.031 0.202 0.046 0.043 0.009 0.086 0.018 0.129 0.028 0.068 0.015 0.138 0.029 0.209 0.042 0.046 0.009 0.092 0.018 0.139 0.026 0.073 0.013 0.149 0.026 0.226 0.039 0.048 0.008 0.096 0.016 0.145 0.023 0.083 0.013 0.169 0.024 0.257 0.036 0.047 0.006 0.093 0.013 0.142 0.018 0.102 0.012 0.209 0.023 0.318 0.034 0.039 0.004 0.076 0.008 0.116 0.012l0.019 0.002c0 0.012 0 0.025 0 0.037-0.001 0.342-0.042 0.683-0.121 1.016l-0.022-0.003c-0.203-0.021-0.39-0.046-0.569-0.074-0.028-0.004-0.056-0.008-0.084-0.013-0.172-0.028-0.335-0.058-0.491-0.091-0.034-0.007-0.067-0.014-0.101-0.021-0.151-0.033-0.298-0.066-0.442-0.102-0.035-0.009-0.069-0.017-0.104-0.026-0.141-0.035-0.281-0.071-0.422-0.108-1.374-0.391-2.799-0.577-4.227-0.551-1.428-0.026-2.852 0.159-4.226 0.551-1.286 0.369-2.619 0.543-3.956 0.516-1.339 0.026-2.675-0.147-3.963-0.515-0.097-0.025-0.194-0.050-0.292-0.075-0.029-0.007-0.059-0.015-0.088-0.022-0.071-0.018-0.142-0.035-0.214-0.053-0.040-0.010-0.082-0.019-0.122-0.029-0.064-0.015-0.129-0.030-0.195-0.045-0.045-0.010-0.092-0.020-0.139-0.030-0.064-0.014-0.13-0.027-0.197-0.040-0.050-0.010-0.101-0.019-0.152-0.029-0.067-0.012-0.137-0.024-0.207-0.036-0.054-0.009-0.108-0.018-0.165-0.026-0.072-0.011-0.148-0.021-0.224-0.031-0.058-0.008-0.116-0.016-0.176-0.023-0.084-0.010-0.172-0.019-0.26-0.028-0.057-0.006-0.112-0.012-0.172-0.017l-0.014-0.001c-0.001-0.032-0.002-0.065-0.002-0.097 0.001-0.322 0.036-0.644 0.105-0.958z"></path>
<path d="M6.115 27.536c-0.219-0.113-0.428-0.232-0.625-0.357-0.249-0.156-0.578-0.081-0.734 0.168s-0.082 0.578 0.166 0.735c0.222 0.14 0.456 0.274 0.703 0.402 0.262 0.136 0.584 0.033 0.719-0.228s0.033-0.584-0.229-0.719z"></path>
<path d="M18.697 26.668c-1.668 1.345-4.204 2.117-6.957 2.117-1.392 0.011-2.777-0.197-4.104-0.617-0.28-0.091-0.58 0.063-0.671 0.342s0.061 0.581 0.341 0.672c1.434 0.455 2.93 0.681 4.434 0.67 2.993 0 5.773-0.858 7.628-2.354 0.229-0.185 0.265-0.521 0.080-0.75s-0.521-0.265-0.75-0.080z"></path>
<path d="M15.259 8.423c-0.059-0.21-0.109-0.418-0.15-0.623-0.058-0.289-0.339-0.476-0.628-0.418s-0.476 0.339-0.418 0.628c0.046 0.23 0.102 0.463 0.169 0.701 0.079 0.284 0.374 0.449 0.658 0.37s0.449-0.374 0.37-0.658z"></path>
<path d="M25.722 17.638c0.018-0.294-0.206-0.547-0.5-0.565-2.194-0.135-4.798-1.459-6.794-3.456-1.005-0.993-1.841-2.143-2.476-3.405-0.131-0.263-0.451-0.371-0.714-0.24s-0.372 0.45-0.242 0.714c0.686 1.366 1.59 2.611 2.677 3.686 2.205 2.206 5.003 3.614 7.482 3.766 0.011 0.001 0.023 0.001 0.033 0.001 0.282-0.001 0.515-0.22 0.532-0.501z"></path>
</symbol>
</defs>
</svg>
